<?xml version="1.0" encoding="UTF-8"?>
<svg version="1.1" xmlns="http://www.w3.org/2000/svg" width="375" height="360">
<path d="M0 0 C2.9375 1.125 2.9375 1.125 3.9375 2.125 C4.43359375 5.2890625 4.43359375 5.2890625 3.9375 9.125 C1.97327933 11.682808 -0.46018189 13.53384446 -3 15.5 C-4.38990621 16.64093623 -5.77793411 17.78416454 -7.1640625 18.9296875 C-7.83856445 19.47850586 -8.51306641 20.02732422 -9.20800781 20.59277344 C-33.16051514 40.38291772 -49.13481433 72.27393998 -52.47265625 102.88671875 C-55.20650866 133.52925695 -46.44364958 164.16395436 -27.0625 188.125 C-24.16794366 191.56819774 -21.17141646 194.87503629 -18.0625 198.125 C-17.51464844 198.72441406 -16.96679688 199.32382813 -16.40234375 199.94140625 C10.56451453 228.49844782 52.45974821 240.8096816 88.91796875 251.109375 C90.00883789 251.41931396 91.09970703 251.72925293 92.22363281 252.04858398 C94.26298202 252.6238296 96.30517571 253.18912367 98.35058594 253.74243164 C104.70378256 255.52443947 109.96686859 257.17112723 113.79296875 262.90625 C115.13261057 266.67370686 115.30194212 269.62945245 115.25 273.625 C115.24162109 274.31770996 115.23324219 275.01041992 115.22460938 275.72412109 C115.09138782 281.57121493 114.36096444 287.27390933 113.375 293.0390625 C112.93928834 296.11238582 112.86304067 299.02563025 112.9375 302.125 C120.44157542 300.78887063 126.72946712 298.21006875 133.5625 294.875 C135.19251953 294.08416016 135.19251953 294.08416016 136.85546875 293.27734375 C169.90732775 276.92375882 201.18817889 253.91421813 227.75 228.3828125 C230.23748079 226.08966615 231.74091301 225.15583717 235.125 224.625 C237.9375 225.125 237.9375 225.125 239.8125 226.25 C241.47675339 229.02375565 241.27814959 230.93385727 240.9375 234.125 C239.13671875 236.58203125 239.13671875 236.58203125 236.625 238.9375 C235.70332031 239.80375 234.78164063 240.67 233.83203125 241.5625 C229.31112517 245.56481361 224.65682118 249.36028234 219.9375 253.125 C218.72868682 254.12154035 217.52175864 255.12037022 216.31640625 256.12109375 C141.57371359 317.98782575 141.57371359 317.98782575 108.9375 315.125 C104.87987479 313.2522499 103.25820204 311.67329703 101 307.8125 C99.00146519 301.40543252 100.2476349 294.67592551 100.9375 288.125 C101.11330655 286.31913915 101.28771836 284.51314212 101.4609375 282.70703125 C101.93241528 277.84408696 102.42937587 272.98424528 102.9375 268.125 C102.09574219 267.9290625 101.25398437 267.733125 100.38671875 267.53125 C54.9240095 256.57865546 8.08760776 241.4843672 -26.0625 208.125 C-26.92230469 207.32707031 -27.78210937 206.52914062 -28.66796875 205.70703125 C-52.60889934 182.95386776 -64.86375373 149.82726401 -66.03881836 117.25390625 C-66.79096606 79.22531859 -50.92294704 44.96732372 -24.95703125 17.77734375 C-5.94041895 -1.69726256 -5.94041895 -1.69726256 0 0 Z " fill="#000000" transform="translate(66.0625,42.875)"/>
<path d="M0 0 C51.83992504 -1.58744268 108.46590223 10.61242823 148.74267578 45.078125 C149.55091797 45.76390625 150.35916016 46.4496875 151.19189453 47.15625 C176.91088536 69.6048511 194.84577914 100.86640907 198.74267578 135.078125 C198.85224609 135.94953125 198.96181641 136.8209375 199.07470703 137.71875 C203.27056267 175.98495343 188.95452284 210.3425808 165.26025391 239.92919922 C162.16732607 243.71731701 158.97435522 247.40807895 155.74267578 251.078125 C154.70240234 252.2846875 154.70240234 252.2846875 153.64111328 253.515625 C152.48900861 254.84912487 151.32757447 256.17468037 150.15283203 257.48828125 C148.97499694 258.81620059 147.85151658 260.192074 146.74267578 261.578125 C143.7450268 263.82636173 141.37083678 263.481254 137.74267578 263.078125 C135.74267578 261.078125 135.74267578 261.078125 135.32470703 257.7890625 C135.84708042 253.15116789 137.11889991 251.92465159 140.43017578 248.703125 C163.37995327 225.3461558 184.78856597 192.5422555 186.74267578 159.078125 C186.80455078 158.01851563 186.80455078 158.01851563 186.86767578 156.9375 C187.73871713 124.92673041 176.2126796 92.82050148 154.74267578 69.078125 C153.83001953 68.19382812 152.91736328 67.30953125 151.97705078 66.3984375 C149.74267578 64.078125 149.74267578 64.078125 149.74267578 62.078125 C149.17162109 61.830625 148.60056641 61.583125 148.01220703 61.328125 C145.38743609 59.88246803 143.58411352 58.16138084 141.43017578 56.078125 C103.52466004 21.54321634 46.45225005 11.0019317 -3.25732422 13.078125 C-25.40608693 14.65463725 -50.64912937 19.40829133 -70.30810547 30.2043457 C-73.43264218 31.6049866 -76.00882275 30.81363477 -79.25732422 30.078125 C-80.65667435 27.27942473 -80.50997827 25.17313708 -80.25732422 22.078125 C-67.02778078 5.82677067 -27.53697639 2.37081674 -8.25732422 0.328125 C-5.5053481 0.17019237 -2.75459864 0.09533545 0 0 Z " fill="#000000" transform="translate(174.25732421875,1.921875)"/>
<path d="M0 0 C1.94071075 2.05143276 3.38593013 3.86959318 4.9375 6.1875 C5.63129761 7.1775 5.63129761 7.1775 6.33911133 8.1875 C7.91252095 10.44532604 9.45702526 12.72128069 11 15 C12.16081178 16.69445353 13.32229377 18.38844807 14.484375 20.08203125 C16.93091769 23.65645804 19.36598002 27.23838242 21.79467773 30.82495117 C25.98037831 36.98813612 30.22733559 43.10743351 34.48828125 49.21875 C35.21615845 50.26385742 35.94403564 51.30896484 36.69396973 52.38574219 C38.46205861 54.92423859 40.23074171 57.46231857 42 60 C42.00586624 59.28003342 42.01173248 58.56006683 42.01777649 57.81828308 C42.07566863 51.03486974 42.14772514 44.25173902 42.23571491 37.46865368 C42.28045208 33.9813232 42.31970032 30.49411043 42.34643555 27.0065918 C42.37740851 22.99758213 42.43219816 18.98920633 42.48828125 14.98046875 C42.49786613 13.10067574 42.49786613 13.10067574 42.50764465 11.1829071 C42.52743881 10.02193008 42.54723297 8.86095306 42.56762695 7.66479492 C42.57873001 6.64109299 42.58983307 5.61739105 42.60127258 4.56266785 C43 2 43 2 44.30436707 0.14204407 C46 -1 46 -1 49.5625 -0.9375 C53 0 53 0 54.19767761 1.58093262 C55.308293 4.92952851 55.28669515 8.15384601 55.2746582 11.64257812 C55.27976913 12.40726913 55.28488007 13.17196014 55.29014587 13.95982361 C55.30402895 16.48371234 55.30308632 19.00732766 55.30078125 21.53125 C55.30466845 23.2871511 55.30900317 25.04305126 55.31376648 26.7989502 C55.32122559 30.47748871 55.32093933 34.15593124 55.31567383 37.83447266 C55.30987483 42.54905427 55.32682195 47.26324358 55.3500185 51.97776031 C55.36474639 55.60315244 55.36562892 59.22844983 55.36250877 62.85386658 C55.36302231 64.5922066 55.36826604 66.33055189 55.37832069 68.06886292 C55.39065177 70.49864258 55.38391426 72.92765459 55.37231445 75.35742188 C55.37995819 76.07546494 55.38760193 76.793508 55.39547729 77.53330994 C55.36321731 80.58916236 55.14769692 82.72578641 53.68717957 85.43737793 C52 87 52 87 48.6328125 87.64453125 C44.60306648 86.92957631 43.45373562 85.93283601 41.13598633 82.63476562 C40.5117981 81.67086914 40.5117981 81.67086914 39.875 80.6875 C39.1802356 79.67913086 39.1802356 79.67913086 38.47143555 78.65039062 C37.47460837 77.19768624 36.48853072 75.73755891 35.51220703 74.27099609 C34.01743343 72.02618111 32.49623924 69.80199152 30.96484375 67.58203125 C28.81966911 64.46832752 26.68685969 61.34668976 24.5625 58.21875 C19.83094043 51.26691418 15.01403841 44.37444721 10.2043457 37.4765625 C9.55554443 36.54585937 8.90674316 35.61515625 8.23828125 34.65625 C7.66118408 33.82931641 7.08408691 33.00238281 6.48950195 32.15039062 C5.30870242 30.445673 4.15029758 28.72544637 3 27 C2.99413376 27.70743851 2.98826752 28.41487701 2.98222351 29.14375305 C2.92432899 35.80944932 2.85227147 42.47482418 2.76428509 49.14019489 C2.71954972 52.56699079 2.68030112 55.99366695 2.65356445 59.4206543 C2.62258953 63.3601231 2.56779902 67.29908651 2.51171875 71.23828125 C2.50532883 72.46960281 2.4989389 73.70092438 2.49235535 74.96955872 C2.47256119 76.11051498 2.45276703 77.25147125 2.43237305 78.42700195 C2.41571846 79.93590752 2.41571846 79.93590752 2.39872742 81.47529602 C2 84 2 84 0.66047668 85.82487488 C-1.9275407 87.65642377 -3.92599978 87.38425003 -7 87 C-8.6622467 85.96533203 -8.6622467 85.96533203 -10 84 C-10.30121149 81.31668422 -10.4201391 78.86427582 -10.40405273 76.1796875 C-10.41091599 75.38427551 -10.41777924 74.58886353 -10.42485046 73.76934814 C-10.44316572 71.13771767 -10.43927472 68.50668059 -10.43359375 65.875 C-10.43815297 64.04801234 -10.44345777 62.2210264 -10.44947815 60.39404297 C-10.45841829 56.56405675 -10.45597552 52.73427895 -10.44604492 48.90429688 C-10.43454826 43.99105207 -10.45477262 39.07852521 -10.48396206 34.16537476 C-10.50228811 30.39245011 -10.50203891 26.61969869 -10.49632454 22.84674072 C-10.49617091 21.03500358 -10.50224917 19.223255 -10.51461601 17.41156006 C-10.52945848 14.88068278 -10.51890015 12.35114715 -10.50170898 9.8203125 C-10.51137695 9.0690509 -10.52104492 8.31778931 -10.53100586 7.54376221 C-10.48416074 4.2581277 -10.43978878 2.47230828 -8.15248108 0.01586914 C-4.94745466 -1.49675156 -3.325825 -1.16807391 0 0 Z " fill="#000000" transform="translate(179,114)"/>
<path d="M0 0 C1.21340561 -0.00855011 1.21340561 -0.00855011 2.45132446 -0.01727295 C4.16447643 -0.0267259 5.8776466 -0.0332581 7.59082031 -0.03710938 C10.20930793 -0.04681107 12.82700932 -0.07782918 15.4453125 -0.109375 C17.10937034 -0.11590551 18.77343379 -0.12115579 20.4375 -0.125 C21.21991058 -0.1373468 22.00232117 -0.1496936 22.80844116 -0.16241455 C26.0678093 -0.14908819 28.44714277 -0.01263929 31.35009766 1.53613281 C32.8515625 3.203125 32.8515625 3.203125 33.2890625 6.203125 C32.8515625 9.203125 32.8515625 9.203125 31.75268555 10.87231445 C28.87488304 12.88681316 26.47201595 12.54009277 22.99609375 12.49609375 C22.33445724 12.49184891 21.67282074 12.48760406 20.99113464 12.48323059 C18.8816934 12.46646193 16.77321404 12.42881599 14.6640625 12.390625 C13.23243569 12.37557568 11.80079388 12.3618877 10.36914062 12.34960938 C6.86261423 12.31911784 3.35816256 12.26040159 -0.1484375 12.203125 C-0.1484375 20.783125 -0.1484375 29.363125 -0.1484375 38.203125 C1.89859375 38.15671875 3.945625 38.1103125 6.0546875 38.0625 C8.04376277 38.03468077 10.03284293 38.00700548 12.02197266 37.98339844 C13.4013293 37.96331858 14.78060119 37.93604834 16.15966797 37.90136719 C18.14513229 37.85269683 20.13122504 37.83226082 22.1171875 37.8125 C23.31118164 37.79155273 24.50517578 37.77060547 25.73535156 37.74902344 C29.46331504 38.29227101 30.61444238 39.2289112 32.8515625 42.203125 C33.33312501 45.0237054 33.36085568 46.44580458 31.75268555 48.8371582 C28.88075346 50.90065635 26.49385838 50.54036925 22.99609375 50.49609375 C22.33445724 50.49184891 21.67282074 50.48760406 20.99113464 50.48323059 C18.8816934 50.46646193 16.77321404 50.42881599 14.6640625 50.390625 C13.23243569 50.37557568 11.80079388 50.3618877 10.36914062 50.34960938 C6.86261423 50.31911784 3.35816256 50.26040159 -0.1484375 50.203125 C-0.1484375 58.783125 -0.1484375 67.363125 -0.1484375 76.203125 C1.89859375 76.15671875 3.945625 76.1103125 6.0546875 76.0625 C8.04376277 76.03468077 10.03284293 76.00700548 12.02197266 75.98339844 C13.4013293 75.96331858 14.78060119 75.93604834 16.15966797 75.90136719 C18.14513229 75.85269683 20.13122504 75.83226082 22.1171875 75.8125 C23.90817871 75.7810791 23.90817871 75.7810791 25.73535156 75.74902344 C29.46331504 76.29227101 30.61444238 77.2289112 32.8515625 80.203125 C33.2890625 82.765625 33.2890625 82.765625 32.8515625 85.203125 C31.56628418 86.83021545 31.56628418 86.83021545 29.8515625 88.203125 C26.87460633 88.51369374 24.11120755 88.6472762 21.1328125 88.63671875 C19.85138367 88.64458153 19.85138367 88.64458153 18.54406738 88.65260315 C16.73853645 88.65902438 14.93296368 88.65768502 13.12744141 88.64916992 C10.36154933 88.64065574 7.59771941 88.66942479 4.83203125 88.70117188 C3.07812562 88.70278385 1.32421633 88.70220643 -0.4296875 88.69921875 C-1.25786987 88.71045273 -2.08605225 88.72168671 -2.93933105 88.73326111 C-8.63869203 88.66390652 -8.63869203 88.66390652 -10.86723328 86.64942932 C-12.61852166 83.30555621 -12.55997096 80.24473117 -12.52075195 76.56054688 C-12.52440262 75.79585587 -12.52805328 75.03116486 -12.53181458 74.24330139 C-12.53991087 71.71926565 -12.52631794 69.19587377 -12.51171875 66.671875 C-12.51120003 64.91597494 -12.51171819 63.16007429 -12.51322937 61.4041748 C-12.51313969 57.72557904 -12.50271849 54.04720261 -12.48461914 50.36865234 C-12.46193213 45.65412949 -12.46138831 40.9399271 -12.46813679 36.22536469 C-12.47147879 32.59996698 -12.46484231 28.97464228 -12.45500755 25.34925842 C-12.45115926 23.6109302 -12.4500058 21.87259385 -12.4515934 20.13426208 C-12.45196439 17.70458511 -12.43933442 15.27531844 -12.4230957 12.84570312 C-12.42557312 12.12766006 -12.42805054 11.409617 -12.43060303 10.66981506 C-12.39195707 7.04547288 -12.26145376 4.22595216 -10.1484375 1.203125 C-6.95965384 -0.39126683 -3.50329036 0.01893113 0 0 Z " fill="#000000" transform="translate(268.1484375,112.796875)"/>
<path d="M0 0 C2.875 0.875 2.875 0.875 4.875 2.875 C5.11550903 5.88687134 5.11550903 5.88687134 5.10205078 9.80322266 C5.10234283 10.51552536 5.10263489 11.22782806 5.10293579 11.9617157 C5.10154016 14.32095434 5.08596827 16.67987889 5.0703125 19.0390625 C5.06658319 20.67288032 5.06373583 22.30670038 5.06173706 23.94052124 C5.0540941 28.24452876 5.03443999 32.54840168 5.0123291 36.85235596 C4.9918849 41.24269795 4.9827384 45.63306165 4.97265625 50.0234375 C4.95119466 58.64068682 4.91705081 67.25782668 4.875 75.875 C5.82342773 75.85928955 6.77185547 75.8435791 7.74902344 75.82739258 C11.2751209 75.77619893 14.80082222 75.73861875 18.32714844 75.71020508 C19.8519515 75.69513849 21.37671136 75.67468124 22.90136719 75.64868164 C25.09581166 75.61220294 27.28968216 75.59525286 29.484375 75.58203125 C31.4638916 75.55846558 31.4638916 75.55846558 33.48339844 75.53442383 C37.03234336 75.89080003 38.4819039 76.26302316 40.875 78.875 C41.25 82.4375 41.25 82.4375 40.875 85.875 C38.49232644 88.25767356 37.9898657 88.12975523 34.74829102 88.1496582 C33.89723282 88.15919022 33.04617462 88.16872223 32.16932678 88.17854309 C30.78806862 88.17717598 30.78806862 88.17717598 29.37890625 88.17578125 C28.43442123 88.18006638 27.48993622 88.1843515 26.51683044 88.18876648 C24.51700645 88.19451586 22.51716155 88.19500558 20.51733398 88.19067383 C17.45325096 88.18751623 14.39013525 88.21095726 11.32617188 88.23632812 C9.38541789 88.23860125 7.4446613 88.23930456 5.50390625 88.23828125 C4.12568443 88.25209587 4.12568443 88.25209587 2.71961975 88.26618958 C1.86540939 88.25996078 1.01119904 88.25373199 0.13110352 88.24731445 C-0.62009262 88.24794388 -1.37128876 88.2485733 -2.14524841 88.2492218 C-4.125 87.875 -4.125 87.875 -5.86575317 86.83377075 C-7.82040904 83.79328443 -7.55033795 80.66291399 -7.52905273 77.16235352 C-7.53591599 76.37830139 -7.54277924 75.59424927 -7.54985046 74.78643799 C-7.56816669 72.19207703 -7.56427413 69.59831805 -7.55859375 67.00390625 C-7.56315339 65.20173444 -7.56845831 63.39956437 -7.57447815 61.59739685 C-7.58341882 57.81868429 -7.58097547 54.04018297 -7.57104492 50.26147461 C-7.55955648 45.41782632 -7.57975972 40.57490718 -7.60896206 35.73135471 C-7.62730461 32.0090013 -7.62703546 28.28682322 -7.62132454 24.56443596 C-7.62117107 22.77864497 -7.62723636 20.99284228 -7.63961601 19.20709419 C-7.65448713 16.70994412 -7.64387844 14.21414857 -7.62670898 11.71704102 C-7.63637695 10.97872543 -7.64604492 10.24040985 -7.65600586 9.47972107 C-7.6065941 6.04943688 -7.34467655 4.17387017 -5.28895569 1.37705994 C-3.125 -0.125 -3.125 -0.125 0 0 Z " fill="#000000" transform="translate(80.125,113.125)"/>
<path d="M0 0 C2.45535534 3.683033 2.28888357 6.46845206 2.2746582 10.72851562 C2.27976913 11.51417404 2.28488007 12.29983246 2.29014587 13.10929871 C2.30405519 15.70835978 2.30308431 18.30715612 2.30078125 20.90625 C2.30466707 22.71081644 2.3090015 24.51538196 2.31376648 26.31994629 C2.32123129 30.10281336 2.32093525 33.88558711 2.31567383 37.66845703 C2.30987477 42.52104497 2.32681937 47.37325178 2.3500185 52.22577667 C2.36473401 55.95235434 2.3656306 59.67883971 2.36250877 63.40544128 C2.36302295 65.19484717 2.36827876 66.98425809 2.37832069 68.77363586 C2.39062751 71.27317252 2.38392882 73.77196014 2.37231445 76.27148438 C2.37995819 77.01339523 2.38760193 77.75530609 2.39547729 78.5196991 C2.36530434 81.45054823 2.34309766 83.49667044 0.66423035 85.95959473 C-1.95900021 87.59952571 -3.98945017 87.37631873 -7 87 C-8.6622467 85.96533203 -8.6622467 85.96533203 -10 84 C-10.30121149 81.31668422 -10.4201391 78.86427582 -10.40405273 76.1796875 C-10.41091599 75.38427551 -10.41777924 74.58886353 -10.42485046 73.76934814 C-10.44316572 71.13771767 -10.43927472 68.50668059 -10.43359375 65.875 C-10.43815297 64.04801234 -10.44345777 62.2210264 -10.44947815 60.39404297 C-10.45841829 56.56405675 -10.45597552 52.73427895 -10.44604492 48.90429688 C-10.43454826 43.99105207 -10.45477262 39.07852521 -10.48396206 34.16537476 C-10.50228811 30.39245011 -10.50203891 26.61969869 -10.49632454 22.84674072 C-10.49617091 21.03500358 -10.50224917 19.223255 -10.51461601 17.41156006 C-10.52945848 14.88068278 -10.51890015 12.35114715 -10.50170898 9.8203125 C-10.51137695 9.0690509 -10.52104492 8.31778931 -10.53100586 7.54376221 C-10.48422768 4.26282281 -10.43149534 2.46922389 -8.16395569 0.00341797 C-5.08230305 -1.42553256 -3.20068003 -0.97412001 0 0 Z " fill="#000000" transform="translate(146,114)"/>
<path d="M0 0 C2 3 2 3 2 6.4375 C1 10 1 10 -1.6875 12.4375 C-5.21983063 14.1036937 -7.1574286 14.59773333 -11 14 C-12.875 12.875 -12.875 12.875 -14 11 C-14.5 8.0625 -14.5 8.0625 -14 5 C-9.44473193 0.5646074 -6.32662148 -0.45190153 0 0 Z " fill="#000000" transform="translate(87,30)"/>
</svg>
