<svg xmlns="http://www.w3.org/2000/svg" xmlns:xlink="http://www.w3.org/1999/xlink" width="1920" zoomAndPan="magnify" viewBox="0 0 1440 1439.999935" height="1920" preserveAspectRatio="xMidYMid meet" version="1.0"><defs><g/><clipPath id="0042ebf3d7"><rect x="0" width="1266" y="0" height="1440"/></clipPath></defs><g transform="matrix(1, 0, 0, 1, 47, -0.000000000000101068)"><g clip-path="url(#0042ebf3d7)"><g fill="#ffffff" fill-opacity="1"><g transform="translate(0.56579, 2262.821878)"><g><path d="M 134.234375 -1206.75 L 134.234375 -1603.875 C 134.234375 -1653.28125 141.457031 -1701.988281 155.90625 -1750 C 170.363281 -1798.007812 193.4375 -1842.753906 225.125 -1884.234375 C 256.820312 -1925.722656 298.769531 -1960.914062 350.96875 -1989.8125 C 403.175781 -2018.707031 467.035156 -2038.285156 542.546875 -2048.546875 L 581.703125 -1876.546875 C 533.222656 -1859.765625 496.164062 -1839.488281 470.53125 -1815.71875 C 444.894531 -1791.945312 427.648438 -1764.210938 418.796875 -1732.515625 C 409.941406 -1700.828125 405.976562 -1664.007812 406.90625 -1622.0625 L 569.125 -1622.0625 L 569.125 -1206.75 Z M 727.125 -1206.75 L 727.125 -1603.875 C 727.125 -1653.28125 734.113281 -1701.988281 748.09375 -1750 C 762.082031 -1798.007812 784.921875 -1842.753906 816.609375 -1884.234375 C 848.304688 -1925.722656 890.488281 -1960.914062 943.15625 -1989.8125 C 995.832031 -2018.707031 1060.394531 -2038.285156 1136.84375 -2048.546875 L 1173.1875 -1876.546875 C 1125.644531 -1859.765625 1089.054688 -1839.488281 1063.421875 -1815.71875 C 1037.785156 -1791.945312 1020.769531 -1764.210938 1012.375 -1732.515625 C 1003.988281 -1700.828125 1000.265625 -1664.007812 1001.203125 -1622.0625 L 1162 -1622.0625 L 1162 -1206.75 Z M 727.125 -1206.75 "/></g></g></g></g></g></svg>